<?xml version="1.0" encoding="iso-8859-1"?>
<!DOCTYPE svg PUBLIC "-//W3C//DTD SVG 1.1//EN" "http://www.w3.org/Graphics/SVG/1.1/DTD/svg11.dtd">

<svg width="40px" height="40px" version="1.1" id="dashboard-logo" xmlns="http://www.w3.org/2000/svg" xmlns:xlink="http://www.w3.org/1999/xlink" x="0px" y="0px"
   viewBox="0 0 450 500" xml:space="preserve">
<path d="M434,211.373c-3.116,9.478-10.862,15.294-17.477,21.974c-12.089,12.208-24.235,24.36-36.456,36.435
  c-3.92,3.873-8.888,5.955-14.369,5.986c-21.94,0.124-43.881,0.11-65.82-0.016c-3.055-0.018-5.141,0.957-7.263,3.082
  c-55.193,55.294-110.458,110.515-165.672,165.788c-5.645,5.651-10.942,11.687-18.982,14.068c-17.881,0-35.762,0-53.643,0
  c-2.969-1.463-6.712-2.225-8.775-4.507C35.507,443.085,22.012,434.97,16,420.373c0-17.881,0-35.762,0-53.643
  c2.424-8.16,8.584-13.504,14.316-19.229c55.19-55.132,110.329-110.315,165.541-165.425c2.125-2.121,3.099-4.208,3.082-7.263
  c-0.126-21.823-0.123-43.648-0.03-65.472c0.024-5.755,2.168-10.871,6.236-14.974c12.015-12.118,24.073-24.193,36.199-36.2
  c6.681-6.615,12.496-14.362,21.974-17.477c17.881,0,35.762,0,53.643,0c8.029,2.387,13.439,8.297,18.96,14.069
  c1.684,1.761,3.45,3.442,5.161,5.177c3.501,3.549,8.364,6.549,10.104,10.819c1.791,4.394,0.408,10.037,0.662,15.121
  c0.122,2.447-0.79,4.056-2.465,5.718c-14.662,14.547-29.281,29.138-43.786,43.841c-1.212,1.228-2.079,3.354-2.119,5.085
  c-0.208,9.046,0.051,29.377,0.145,30.79c10.279,0,20.238-0.065,30.194,0.047c2.394,0.027,4.081-0.702,5.774-2.41
  c14.458-14.586,29.044-29.047,43.49-43.645c1.794-1.813,3.562-2.572,6.074-2.453c4.969,0.235,10.482-1.106,14.777,0.644
  c4.171,1.699,7.228,6.331,10.546,9.888c7.11,7.624,16.297,13.606,19.522,24.349C434,175.611,434,193.492,434,211.373z
   M394.549,150.37c-1.007,1.191-1.765,2.226-2.66,3.124c-12.628,12.657-25.229,25.342-37.944,37.912
  c-3.913,3.869-8.873,5.905-14.355,5.985c-11.259,0.164-22.523,0.061-33.785,0.044c-5.105-0.008-10.798,1.329-15.151-0.499
  c-4.472-1.878-7.771-6.747-11.293-10.576c-1.168-1.27-2.005-3.364-2.022-5.091c-0.153-15.435-0.182-30.874-0.039-46.309
  c0.05-5.36,2.086-10.245,5.845-14.059c12.63-12.818,25.415-25.483,38.136-38.212c0.88-0.881,1.72-1.803,2.962-3.108
  c-3.722-3.571-7.192-7.162-10.971-10.392c-1.427-1.22-3.558-2.235-5.387-2.266c-11.723-0.201-23.452-0.201-35.175,0.001
  c-1.822,0.031-4.057,0.995-5.362,2.278c-13.492,13.269-26.87,26.655-40.148,40.137c-1.203,1.221-2.097,3.341-2.108,5.05
  c-0.14,21.71-0.134,43.421-0.068,65.132c0.021,6.849-2.322,12.576-7.156,17.407c-57.726,57.7-115.43,115.422-173.171,173.108
  c-1.638,1.636-2.656,3.206-2.628,5.697c0.134,11.841-0.017,23.685,0.149,35.525c0.023,1.631,0.861,3.608,1.983,4.805
  c4.601,4.911,9.362,9.685,14.288,14.27c1.278,1.19,3.356,2.105,5.083,2.133c11.491,0.186,22.988-0.005,34.479,0.167
  c2.946,0.044,4.928-0.928,6.964-2.967c57.829-57.926,115.706-115.803,173.613-173.651c4.165-4.161,9.375-6.291,15.287-6.304
  c22.175-0.046,44.351,0.023,66.525-0.104c1.612-0.009,3.616-0.836,4.764-1.967c13.644-13.445,27.185-26.996,40.662-40.609
  c1.021-1.031,1.898-2.74,1.915-4.145c0.149-12.305,0.109-24.612,0.046-36.919c-0.006-1.076-0.253-2.456-0.936-3.174
  C402.989,158.682,398.919,154.731,394.549,150.37z"/>
</svg>