<?xml version="1.0" encoding="utf-8"?>
<!-- Generator: Adobe Illustrator 18.0.0, SVG Export Plug-In . SVG Version: 6.00 Build 0)  -->
<!DOCTYPE svg PUBLIC "-//W3C//DTD SVG 1.1//EN" "http://www.w3.org/Graphics/SVG/1.1/DTD/svg11.dtd">
<svg version="1.1" id="svg2" xmlns="http://www.w3.org/2000/svg" xmlns:xlink="http://www.w3.org/1999/xlink" x="0px" y="0px"
	 viewBox="-10 90 1487.5 113.1" enable-background="new 0 90 1487.5 113.1" xml:space="preserve"
   height="100%" width="100%">
<g id="layer1" transform="translate(-162.03834,-405.11419)">
	<g id="g3185" transform="matrix(1.25,0,0,-1.25,-605.21166,623.58956)">
		<path id="path36" d="M619.7,13.8h-5.9v87.5h5.9V13.8z"/>
		<g id="g38" transform="translate(622.0234,174.54)">
			<path id="path40" d="M42.1-73.2L4.7-115.9l-7,0.1l37.6,42.6H42.1z"/>
		</g>
		<g id="g42" transform="translate(621.2617,160.2617)">
			<path id="path44" d="M38.2-146.3l-39.8,44.8l7-0.1l39.6-44.7H38.2z"/>
		</g>
		<g id="g46" transform="translate(739.666,160.2617)">
			<path id="path48" d="M644.4-146.3l-33.5,38.5l4.6,2.4l35.7-40.9H644.4z"/>
		</g>
		<g id="g50" transform="translate(633.8438,160.2402)">
			<path id="path52" d="M102.6-146.4h-5.9v31.3L63.8-58.9h7.1l25.5-44.3c1.5-2.6,2.7-4.9,3.7-6.9c0.3,1.1,1.5,3.3,3.4,6.6l25.5,44.6
				h6.7l-33-56.4V-146.4z"/>
		</g>
		<g id="g54" transform="translate(648.8438,173.7002)">
			<path id="path56" d="M179.4-77.5h-29.6v5.1h65.1v-5.1h-29.6v-82.4h-5.9V-77.5z"/>
		</g>
		<g id="g58" transform="translate(662.8633,172.0303)">
			<path id="path60" d="M251.2-86.1c-6.8-7.6-10.2-17.1-10.2-28.3s3.4-20.7,10.2-28.4c6.8-7.7,15.6-11.5,26.4-11.5
				c10.8,0,19.6,3.8,26.4,11.5c6.8,7.7,10.2,17.1,10.2,28.4s-3.4,20.7-10.2,28.3c-6.8,7.6-15.6,11.4-26.5,11.4
				C266.8-74.6,258-78.5,251.2-86.1 M246.9-146.6c-8.1,8.7-12.2,19.5-12.2,32.2s4.1,23.4,12.2,32.1c8.1,8.7,18.4,13,30.8,13
				c12.4,0,22.7-4.3,30.8-13c8.2-8.7,12.2-19.4,12.2-32.1s-4.1-23.5-12.2-32.2c-8.2-8.7-18.4-13.1-30.8-13.1
				C265.2-159.7,255-155.3,246.9-146.6"/>
		</g>
		<g id="g62" transform="translate(683.582,172.2598)">
			<path id="path64" d="M357.3-84.9l0.3-10.4v-63.2h-5.9v88.3h2.7l57.7-66.5c3.9-4.7,6.9-8.4,9.1-11.1c-0.3,3.9-0.5,8.4-0.5,13.5
				V-71h5.9v-88.3h-2.7L365-91.5c-4.1,4.7-6.7,7.8-7.8,9.3L357.3-84.9z"/>
		</g>
		<g id="g66" transform="translate(704.1621,160.2402)">
			<path id="path68" d="M462.7-146.4v87.5h40.6v-5.1h-34.8v-32.2H500v-5h-31.5v-40h36.1v-5.1H462.7z"/>
		</g>
		<g id="g70" transform="translate(751.1426,173.04)">
			<path id="path72" d="M703.2-80.9c-0.1-0.1-0.3-0.6-0.5-1.5c-1.2-3.5-2.2-6.5-3.3-8.9l-13.5-32.6h35l-13.5,32.4
				C704.6-85.2,703.2-81.7,703.2-80.9 M683.9-128.9l-12.6-30.4H665l36.8,88.1h3.4l37-88.1h-6.6L723-128.9H683.9z"/>
		</g>
		<path id="path76" d="M1564,18.1c11.5,0,20.7,3.1,27.7,9.4c7,6.2,10.5,15.7,10.5,28.2s-3.9,22.6-11.8,30
			c-7.8,7.4-17.6,11.1-29.2,11.1c-7.4,0-13.8-0.2-19.3-0.6V19.1C1547.2,18.4,1554.6,18.1,1564,18.1 M1561.2,102.2
			c13.5,0,24.7-4.2,33.8-12.5c9.1-8.4,13.6-19.7,13.6-34.1c0-7.3-1.2-13.7-3.5-19.3c-2.3-5.6-5.5-10-9.6-13.4
			c-8.4-6.8-18.8-10.2-31.5-10.2c-8.3,0-17.6,0.4-28,1.3v87.3C1544.3,101.9,1552.7,102.2,1561.2,102.2"/>
		<path id="path78" d="M1660.2,101.3h5.9V13.8h-5.9V101.3z"/>
		<g id="g80" transform="translate(796.8809,172.0303)">
			<path id="path82" d="M937.4-86.1c-6.8-7.6-10.2-17.1-10.2-28.3s3.4-20.7,10.2-28.4c6.8-7.7,15.6-11.5,26.4-11.5
				c10.8,0,19.6,3.8,26.4,11.5c6.8,7.7,10.2,17.1,10.2,28.4s-3.4,20.7-10.2,28.3c-6.8,7.6-15.6,11.4-26.5,11.4
				C953-74.6,944.1-78.5,937.4-86.1 M933-146.6c-8.1,8.7-12.2,19.5-12.2,32.2S924.9-91,933-82.3c8.1,8.7,18.4,13,30.8,13
				c12.4,0,22.7-4.3,30.9-13c8.2-8.7,12.2-19.4,12.2-32.1s-4.1-23.5-12.2-32.2c-8.2-8.7-18.4-13.1-30.9-13.1
				C951.4-159.7,941.2-155.3,933-146.6"/>
		</g>
		<g id="g84" transform="translate(730.0625,160.2402)">
			<path id="path86" d="M595.3-146.4v87c6.8,0.6,13.3,1,19.7,1c8.6,0,15.4-2,20.6-6c5.2-4,7.8-10,7.8-18.1s-3.5-14.6-10.6-19.8
				c-7.1-5.2-15.5-7.8-25.3-7.8h-1.4v4h0.9c8.1,0,15.1,2.1,21,6.4c6,4.2,8.9,9.8,8.9,16.6c0,6.8-2.1,11.8-6.2,14.8
				c-4.2,3.1-9.8,4.6-16.8,4.6c-3.7,0-7.9-0.2-12.9-0.5v-82.3H595.3z"/>
		</g>
	</g>
</g>
</svg>
