<?xml version="1.0" encoding="utf-8"?>
<!-- Generator: Adobe Illustrator 18.0.0, SVG Export Plug-In . SVG Version: 6.00 Build 0)  -->
<!DOCTYPE svg PUBLIC "-//W3C//DTD SVG 1.1//EN" "http://www.w3.org/Graphics/SVG/1.1/DTD/svg11.dtd">
<svg version="1.1" id="Layer_1" xmlns="http://www.w3.org/2000/svg" xmlns:xlink="http://www.w3.org/1999/xlink" x="0px" y="0px"  viewBox="0 0 164 12.9" enable-background="new 0 0 164 12.9" xml:space="preserve">
<g>
	<g>
		<path d="M35.9,0.3c-3.4,0-6.2,2.8-6.2,6.2s2.8,6.2,6.2,6.2c3.4,0,6.2-2.8,6.2-6.2S39.3,0.3,35.9,0.3z M35.9,11.4
			c-2.7,0-4.9-2.2-4.9-4.9s2.2-4.9,4.9-4.9s4.9,2.2,4.9,4.9S38.6,11.4,35.9,11.4z"/>
		<path fill="#FFFFFF" d="M35.9,12.9c-3.6,0-6.4-2.9-6.4-6.4S32.3,0,35.9,0c3.6,0,6.4,2.9,6.4,6.4S39.4,12.9,35.9,12.9z M35.9,0.5
			c-3.3,0-5.9,2.7-5.9,5.9s2.7,5.9,5.9,5.9c3.3,0,5.9-2.7,5.9-5.9S39.2,0.5,35.9,0.5z M35.9,11.6c-2.9,0-5.2-2.3-5.2-5.2
			c0-2.9,2.3-5.2,5.2-5.2s5.2,2.3,5.2,5.2C41.1,9.3,38.7,11.6,35.9,11.6z M35.9,1.8c-2.6,0-4.7,2.1-4.7,4.7c0,2.6,2.1,4.7,4.7,4.7
			c2.6,0,4.7-2.1,4.7-4.7C40.6,3.9,38.5,1.8,35.9,1.8z"/>
	</g>
	<g>
		<path d="M37.6,7.2c-0.3,0.7-1,1.1-1.7,1.1c-1,0-1.9-0.8-1.9-1.9s0.8-1.9,1.9-1.9c0.8,0,1.4,0.4,1.7,1.1h1.7
			C38.9,4.1,37.5,3,35.9,3c-1.9,0-3.5,1.6-3.5,3.5s1.6,3.5,3.5,3.5c1.7,0,3-1.2,3.4-2.7H37.6z"/>
		<path fill="#FFFFFF" d="M35.9,10.2c-2.1,0-3.7-1.7-3.7-3.7s1.7-3.7,3.7-3.7c1.7,0,3.2,1.2,3.6,2.8l0.1,0.3h-2.1l-0.1-0.1
			c-0.3-0.6-0.9-0.9-1.5-0.9c-0.9,0-1.6,0.7-1.6,1.6s0.7,1.6,1.6,1.6c0.7,0,1.2-0.4,1.5-1l0.1-0.1h2.1l-0.1,0.3
			C39.1,8.9,37.6,10.2,35.9,10.2z M35.9,3.2c-1.8,0-3.2,1.4-3.2,3.2s1.4,3.2,3.2,3.2c1.4,0,2.6-0.9,3.1-2.2h-1.2
			c-0.4,0.7-1.1,1.1-1.9,1.1c-1.2,0-2.1-1-2.1-2.1s1-2.1,2.1-2.1c0.8,0,1.5,0.4,1.9,1.1h1.2C38.5,4.1,37.3,3.2,35.9,3.2z"/>
	</g>
</g>
<g>
	<g>
		<path d="M1.1,10V9.6c1.2-1,2.1-1.9,2.8-2.8C4.6,6,5,5.3,5,4.7c0-0.6-0.1-1-0.4-1.2C4.3,3.3,3.9,3.2,3.3,3.2
			c-0.6,0-1.1,0.1-1.7,0.3L1.5,3.1c0.7-0.2,1.3-0.3,1.9-0.3c0.6,0,1.1,0.2,1.5,0.4C5.3,3.5,5.5,4,5.5,4.6c0,0.7-0.3,1.4-1,2.3
			C3.9,7.8,3,8.7,1.9,9.6h4V10H1.1z"/>
		<path d="M10.9,10.1c-0.7,0-1.3-0.3-1.8-1C8.7,8.5,8.4,7.6,8.4,6.4c0-1.2,0.2-2.1,0.7-2.7c0.4-0.7,1-1,1.8-1c0.8,0,1.4,0.3,1.8,1
			c0.4,0.7,0.6,1.6,0.6,2.7c0,1.1-0.2,2.1-0.7,2.7C12.3,9.8,11.7,10.1,10.9,10.1z M9.5,4C9.1,4.6,9,5.4,9,6.4s0.2,1.8,0.5,2.4
			c0.3,0.6,0.8,0.9,1.4,0.9c0.6,0,1.1-0.3,1.4-0.9c0.3-0.6,0.5-1.4,0.5-2.4S12.7,4.6,12.4,4c-0.3-0.6-0.8-0.8-1.4-0.8
			C10.3,3.2,9.8,3.5,9.5,4z"/>
		<path d="M17.1,2.9V10h-0.5V3.5l-1.1,0.6l-0.2-0.3l1.5-0.9H17.1z"/>
		<path d="M48.7,2.9V10h-0.5V2.9H48.7z M52.5,2.9l-3,3.5c0.4,0.5,0.9,1,1.4,1.6c0.5,0.6,0.9,1,1,1.1c0.2,0.1,0.3,0.2,0.4,0.3
			c0.1,0.1,0.2,0.1,0.4,0.2c0.2,0.1,0.4,0.1,0.6,0.2l0,0.3c-0.4,0-0.7-0.1-1-0.2c-0.3-0.1-0.5-0.3-0.7-0.5C51.4,9.3,51,8.8,50.3,8
			c-0.6-0.7-1.1-1.3-1.5-1.7l3.1-3.5H52.5z"/>
		<path d="M57.4,10h-0.5V7.5l-2.7-4.6h0.6l2.1,3.6C57,6.7,57.1,6.9,57.2,7c0-0.1,0.1-0.3,0.3-0.5l2.1-3.6h0.5l-2.7,4.6V10z"/>
		<path d="M63.9,3.3h-2.4V2.9h5.3v0.4h-2.4V10h-0.5V3.3z"/>
		<path d="M69.5,9.1c-0.7-0.7-1-1.6-1-2.6c0-1,0.3-1.9,1-2.6c0.7-0.7,1.5-1.1,2.5-1.1c1,0,1.9,0.4,2.5,1.1c0.7,0.7,1,1.6,1,2.6
			c0,1-0.3,1.9-1,2.6c-0.7,0.7-1.5,1.1-2.5,1.1C71,10.1,70.2,9.8,69.5,9.1z M69.9,4.1c-0.6,0.6-0.8,1.4-0.8,2.3
			c0,0.9,0.3,1.7,0.8,2.3c0.6,0.6,1.3,0.9,2.2,0.9c0.9,0,1.6-0.3,2.2-0.9c0.6-0.6,0.8-1.4,0.8-2.3c0-0.9-0.3-1.7-0.8-2.3
			c-0.6-0.6-1.3-0.9-2.2-0.9C71.2,3.2,70.4,3.5,69.9,4.1z"/>
		<path d="M79.3,4l0,0.8V10h-0.5V2.8H79l4.7,5.4c0.3,0.4,0.6,0.7,0.7,0.9c0-0.3,0-0.7,0-1.1V2.9h0.5v7.2h-0.2l-4.8-5.5
			c-0.3-0.4-0.5-0.6-0.6-0.8L79.3,4z"/>
		<path d="M88.5,10V2.9h3.3v0.4H89v2.6h2.6v0.4H89v3.3h3V10H88.5z"/>
		<path d="M100,4l0,0.8V10h-0.5V2.8h0.2l4.7,5.4c0.3,0.4,0.6,0.7,0.7,0.9c0-0.3,0-0.7,0-1.1V2.9h0.5v7.2h-0.2l-4.8-5.5
			c-0.3-0.4-0.5-0.6-0.6-0.8L100,4z"/>
		<path d="M109.2,10V2.9h3.3v0.4h-2.8v2.6h2.6v0.4h-2.6v3.3h3V10H109.2z"/>
		<path d="M116.9,3.3h-2.4V2.9h5.3v0.4h-2.4V10h-0.5V3.3z"/>
		<path d="M127,10V2.9c0.6,0,1.2-0.1,1.6-0.1c0.7,0,1.2,0.2,1.7,0.5c0.4,0.3,0.7,0.8,0.7,1.5c0,0.4-0.1,0.8-0.4,1.2
			c-0.3,0.4-0.5,0.7-0.9,0.9c0.2,0.3,0.6,0.7,0.9,1.2c0.4,0.5,0.6,0.8,0.7,0.9c0.4,0.4,0.9,0.7,1.4,0.7l0,0.3c-0.4,0-0.7-0.1-1-0.2
			c-0.3-0.1-0.5-0.3-0.7-0.5c-0.2-0.2-0.8-1-1.7-2.2c-0.7,0-1.2,0-1.8-0.1V10H127z M128.9,6.7c0.3,0,0.6-0.2,0.9-0.6
			c0.3-0.4,0.5-0.8,0.5-1.3c0-0.5-0.2-0.9-0.5-1.2c-0.3-0.3-0.8-0.4-1.4-0.4c-0.3,0-0.6,0-1,0v3.4C128,6.7,128.5,6.7,128.9,6.7z"/>
		<path d="M134.9,7.5l-1,2.5h-0.5l3-7.2h0.3l3,7.2h-0.5l-1-2.5H134.9z M136.5,3.6c0,0,0,0,0,0.1c-0.1,0.3-0.2,0.5-0.3,0.7l-1.1,2.7
			h2.9l-1.1-2.7C136.6,4,136.5,3.7,136.5,3.6z"/>
		<path d="M144.2,2.8c1.1,0,2,0.3,2.8,1c0.7,0.7,1.1,1.6,1.1,2.8c0,0.6-0.1,1.1-0.3,1.6c-0.2,0.5-0.5,0.8-0.8,1.1
			c-0.7,0.6-1.5,0.8-2.6,0.8c-0.7,0-1.4,0-2.3-0.1V2.9C142.8,2.8,143.5,2.8,144.2,2.8z M144.5,9.7c0.9,0,1.7-0.3,2.3-0.8
			c0.6-0.5,0.9-1.3,0.9-2.3c0-1-0.3-1.8-1-2.4c-0.6-0.6-1.4-0.9-2.4-0.9c-0.6,0-1.1,0-1.6,0v6.3C143.1,9.6,143.7,9.7,144.5,9.7z"/>
		<path d="M151.3,10V2.9h0.5V10H151.3z"/>
		<path d="M156,9.1c-0.7-0.7-1-1.6-1-2.6c0-1,0.3-1.9,1-2.6c0.7-0.7,1.5-1.1,2.5-1.1s1.9,0.4,2.5,1.1c0.7,0.7,1,1.6,1,2.6
			c0,1-0.3,1.9-1,2.6c-0.7,0.7-1.5,1.1-2.5,1.1S156.7,9.8,156,9.1z M156.4,4.1c-0.6,0.6-0.8,1.4-0.8,2.3c0,0.9,0.3,1.7,0.8,2.3
			c0.6,0.6,1.3,0.9,2.2,0.9s1.6-0.3,2.2-0.9c0.6-0.6,0.8-1.4,0.8-2.3c0-0.9-0.3-1.7-0.8-2.3c-0.6-0.6-1.3-0.9-2.2-0.9
			S156.9,3.5,156.4,4.1z"/>
	</g>
	<g>
		<path d="M23.8,2.9v0.4H21l-0.1,1.6c2,0.4,3,1.4,3,2.9c0,0.6-0.2,1.2-0.6,1.6c-0.4,0.5-1,0.7-1.8,0.7c-0.6,0-1.1-0.1-1.6-0.3
			L20,9.4c0.5,0.2,0.9,0.3,1.3,0.3c0.4,0,0.8-0.1,1-0.2C22.6,9.4,22.8,9.2,23,9c0.3-0.4,0.4-0.8,0.4-1.3c0-1.4-1-2.2-3-2.5l0.2-2.4
			H23.8z"/>
	</g>
</g>
</svg>
