<?xml version="1.0" encoding="utf-8"?>
<!-- Generator: Adobe Illustrator 18.0.0, SVG Export Plug-In . SVG Version: 6.00 Build 0)  -->
<!DOCTYPE svg PUBLIC "-//W3C//DTD SVG 1.1//EN" "http://www.w3.org/Graphics/SVG/1.1/DTD/svg11.dtd">
<svg version="1.1" id="Layer_1" xmlns="http://www.w3.org/2000/svg" xmlns:xlink="http://www.w3.org/1999/xlink" x="0px" y="0px"
	 viewBox="0 0 19.6 38.3" enable-background="new 0 0 19.6 38.3" xml:space="preserve">
<polyline fill="#B9B9B9" points="76.8,18.1 95.9,37.3 96.6,36.6 78.2,18.1 96.6,-0.3 95.9,-1 76.8,18.1 "/>
<path fill="#AAAAAA" d="M-44.2-0.9"/>
<path opacity="0.3" fill="#AAAAAA" d="M90.6-0.9"/>
<polyline fill="#B9B9B9" points="178.6,18.1 159.5,-1 158.8,-0.3 177.2,18.1 158.8,36.6 159.5,37.3 178.6,18.1 "/>
<polygon fill="#E6E6E6" points="0,37.6 0,0.7 0.5,0 19.6,19.1 0.5,38.3 "/>
<polygon fill="#E6E6E6" points="-53,0.3 -53,37.2 -53.6,37.9 -72.8,18.7 -53.6,-0.4 "/>
<path fill="#3C588D" d="M-102.9,113.8h-21c-1.8,0-3.3,1.5-3.3,3.3v21c0,1.8,1.5,3.3,3.3,3.3h21c1.8,0,3.3-1.5,3.3-3.3v-21
	C-99.6,115.3-101.1,113.8-102.9,113.8z M-108,117.7c0-0.4,0.3-0.8,0.8-0.8h3.7c0.4,0,0.8,0.3,0.8,0.8v3.7c0,0.4-0.3,0.8-0.8,0.8
	h-3.7c-0.4,0-0.8-0.3-0.8-0.8V117.7z M-113.3,122.3c2.9,0,5.3,2.4,5.3,5.3c0,2.9-2.4,5.3-5.3,5.3c-2.9,0-5.3-2.4-5.3-5.3
	C-118.6,124.7-116.3,122.3-113.3,122.3z M-102.7,137.4c0,0.4-0.3,0.8-0.8,0.8h-19.8c-0.4,0-0.8-0.3-0.8-0.8v-12h2.6
	c-0.2,0.7-0.3,1.4-0.3,2.2c0,4.6,3.8,8.4,8.4,8.4c4.6,0,8.4-3.8,8.4-8.4c0-0.8-0.1-1.5-0.3-2.2h2.6V137.4z"/>
<path fill="#E6E6E6" d="M-40.6,113.8h-21c-1.8,0-3.3,1.5-3.3,3.3v21c0,1.8,1.5,3.3,3.3,3.3h21c1.8,0,3.3-1.5,3.3-3.3v-21
	C-37.3,115.3-38.8,113.8-40.6,113.8z M-45.7,117.7c0-0.4,0.3-0.8,0.8-0.8h3.7c0.4,0,0.8,0.3,0.8,0.8v3.7c0,0.4-0.3,0.8-0.8,0.8H-45
	c-0.4,0-0.8-0.3-0.8-0.8V117.7z M-51.1,122.3c2.9,0,5.3,2.4,5.3,5.3c0,2.9-2.4,5.3-5.3,5.3c-2.9,0-5.3-2.4-5.3-5.3
	C-56.4,124.7-54,122.3-51.1,122.3z M-40.4,137.4c0,0.4-0.3,0.8-0.8,0.8H-61c-0.4,0-0.8-0.3-0.8-0.8v-12h2.6
	c-0.2,0.7-0.3,1.4-0.3,2.2c0,4.6,3.8,8.4,8.4,8.4c4.6,0,8.4-3.8,8.4-8.4c0-0.8-0.1-1.5-0.3-2.2h2.6V137.4z"/>
</svg>
