<?xml version="1.0" encoding="utf-8"?>
<!-- Generator: Adobe Illustrator 18.0.0, SVG Export Plug-In . SVG Version: 6.00 Build 0)  -->
<!DOCTYPE svg PUBLIC "-//W3C//DTD SVG 1.1//EN" "http://www.w3.org/Graphics/SVG/1.1/DTD/svg11.dtd">
<svg version="1.1" id="Layer_1" xmlns="http://www.w3.org/2000/svg" xmlns:xlink="http://www.w3.org/1999/xlink" x="0px" y="0px"
	 viewBox="0 0 19.8 38.3" enable-background="new 0 0 19.8 38.3" xml:space="preserve">
<polyline fill="#B9B9B9" points="149.6,18.5 168.8,37.7 169.5,37 151,18.5 169.5,0.1 168.8,-0.6 149.6,18.5 "/>
<path fill="#AAAAAA" d="M28.6-0.5"/>
<path opacity="0.3" fill="#AAAAAA" d="M163.5-0.5"/>
<polyline fill="#B9B9B9" points="251.5,18.5 232.3,-0.6 231.6,0.1 250,18.5 231.6,37 232.3,37.7 251.5,18.5 "/>
<polygon fill="#E6E6E6" points="72.8,38 72.8,1.1 73.3,0.4 92.5,19.5 73.3,38.7 "/>
<polygon fill="#E6E6E6" points="19.8,0.7 19.8,37.6 19.2,38.3 0,19.1 19.2,0 "/>
<path fill="#3C588D" d="M-30,114.2h-21c-1.8,0-3.3,1.5-3.3,3.3v21c0,1.8,1.5,3.3,3.3,3.3h21c1.8,0,3.3-1.5,3.3-3.3v-21
	C-26.8,115.7-28.2,114.2-30,114.2z M-35.2,118.1c0-0.4,0.3-0.8,0.8-0.8h3.7c0.4,0,0.8,0.3,0.8,0.8v3.7c0,0.4-0.3,0.8-0.8,0.8h-3.7
	c-0.4,0-0.8-0.3-0.8-0.8V118.1z M-40.5,122.8c2.9,0,5.3,2.4,5.3,5.3c0,2.9-2.4,5.3-5.3,5.3c-2.9,0-5.3-2.4-5.3-5.3
	C-45.8,125.1-43.5,122.8-40.5,122.8z M-29.9,137.8c0,0.4-0.3,0.8-0.8,0.8h-19.8c-0.4,0-0.8-0.3-0.8-0.8v-12h2.6
	c-0.2,0.7-0.3,1.4-0.3,2.2c0,4.6,3.8,8.4,8.4,8.4c4.6,0,8.4-3.8,8.4-8.4c0-0.8-0.1-1.5-0.3-2.2h2.6V137.8z"/>
<path fill="#E6E6E6" d="M32.2,114.2h-21c-1.8,0-3.3,1.5-3.3,3.3v21c0,1.8,1.5,3.3,3.3,3.3h21c1.8,0,3.3-1.5,3.3-3.3v-21
	C35.5,115.7,34,114.2,32.2,114.2z M27.1,118.1c0-0.4,0.3-0.8,0.8-0.8h3.7c0.4,0,0.8,0.3,0.8,0.8v3.7c0,0.4-0.3,0.8-0.8,0.8h-3.7
	c-0.4,0-0.8-0.3-0.8-0.8V118.1z M21.7,122.8c2.9,0,5.3,2.4,5.3,5.3c0,2.9-2.4,5.3-5.3,5.3c-2.9,0-5.3-2.4-5.3-5.3
	C16.4,125.1,18.8,122.8,21.7,122.8z M32.4,137.8c0,0.4-0.3,0.8-0.8,0.8H11.8c-0.4,0-0.8-0.3-0.8-0.8v-12h2.6
	c-0.2,0.7-0.3,1.4-0.3,2.2c0,4.6,3.8,8.4,8.4,8.4c4.6,0,8.4-3.8,8.4-8.4c0-0.8-0.1-1.5-0.3-2.2h2.6V137.8z"/>
</svg>
