<?xml version="1.0" encoding="UTF-8" standalone="no"?>
<!-- Created with Inkscape (http://www.inkscape.org/) -->

<svg
   xmlns:dc="http://purl.org/dc/elements/1.1/"
   xmlns:cc="http://creativecommons.org/ns#"
   xmlns:rdf="http://www.w3.org/1999/02/22-rdf-syntax-ns#"
   xmlns:svg="http://www.w3.org/2000/svg"
   xmlns="http://www.w3.org/2000/svg"
   xmlns:sodipodi="http://sodipodi.sourceforge.net/DTD/sodipodi-0.dtd"
   xmlns:inkscape="http://www.inkscape.org/namespaces/inkscape"
   width="18.63125"
   height="37.26125"
   id="svg3342"
   version="1.1"
   inkscape:version="0.48.4 r9939"
   sodipodi:docname="facebook.svg">
  <defs
     id="defs3344" />
  <sodipodi:namedview
     id="base"
     pagecolor="#ffffff"
     bordercolor="#666666"
     borderopacity="1.0"
     inkscape:pageopacity="0.0"
     inkscape:pageshadow="2"
     inkscape:zoom="0.35"
     inkscape:cx="-15.68438"
     inkscape:cy="-55.655093"
     inkscape:document-units="px"
     inkscape:current-layer="layer1"
     showgrid="false"
     fit-margin-top="0"
     fit-margin-left="0"
     fit-margin-right="0"
     fit-margin-bottom="0"
     inkscape:window-width="459"
     inkscape:window-height="360"
     inkscape:window-x="65"
     inkscape:window-y="692"
     inkscape:window-maximized="0" />
  <metadata
     id="metadata3347">
    <rdf:RDF>
      <cc:Work
         rdf:about="">
        <dc:format>image/svg+xml</dc:format>
        <dc:type
           rdf:resource="http://purl.org/dc/dcmitype/StillImage" />
        <dc:title></dc:title>
      </cc:Work>
    </rdf:RDF>
  </metadata>
  <g
     inkscape:label="Layer 1"
     inkscape:groupmode="layer"
     id="layer1"
     transform="translate(-390.68438,-439.44584)">
    <g
       id="g40"
       transform="matrix(1.25,0,0,-1.25,403.83563,446.02084)">
      <path
         d="M 0,0 0.877,0 4.384,0 4.384,5.26 1.754,5.26 0.877,5.26 -0.877,5.26 C -7.89,5.26 -7.014,-0.877 -7.014,-0.877 L -7.014,-1.656 -7.014,-4.384 -10.521,-4.384 -10.521,-9.645 -7.014,-9.645 -7.014,-24.549 -0.877,-24.549 -0.877,-9.645 3.452,-9.645 4.384,-4.384 -0.877,-4.384 -0.877,-0.877 C -0.877,-0.877 -0.877,0 0,0"
         style="fill:#e6e6e6;fill-opacity:1;fill-rule:nonzero;stroke:none"
         id="path42"
         inkscape:connector-curvature="0" />
    </g>
  </g>
</svg>
