<?xml version="1.0" encoding="utf-8"?>
<!-- Generator: Adobe Illustrator 18.0.0, SVG Export Plug-In . SVG Version: 6.00 Build 0)  -->
<!DOCTYPE svg PUBLIC "-//W3C//DTD SVG 1.1//EN" "http://www.w3.org/Graphics/SVG/1.1/DTD/svg11.dtd">
<svg version="1.1" id="Layer_1" xmlns="http://www.w3.org/2000/svg" xmlns:xlink="http://www.w3.org/1999/xlink" x="0px" y="0px" height="2em" viewBox="0 0 27.6 27.6" enable-background="new 0 0 27.6 27.6" xml:space="preserve">
<polyline fill="#B9B9B9" points="141.7,-95.7 160.8,-76.5 161.5,-77.2 143.1,-95.7 161.5,-114.1 160.8,-114.8 141.7,-95.7 "/>
<path fill="#AAAAAA" d="M20.7-114.7"/>
<path opacity="0.3" fill="#AAAAAA" d="M155.5-114.7"/>
<polyline fill="#B9B9B9" points="243.5,-95.7 224.4,-114.8 223.7,-114.1 242.1,-95.7 223.7,-77.2 224.4,-76.5 243.5,-95.7 "/>
<polygon fill="#E6E6E6" points="-6.1,-76.2 -6.1,-113.1 -5.6,-113.8 13.5,-94.7 -5.6,-75.5 "/>
<polygon fill="#E6E6E6" points="-31.1,-114.5 -31.1,-77.6 -31.7,-76.9 -50.9,-96.1 -31.7,-115.2 "/>
<path fill="#3C588D" d="M-38,0h-21c-1.8,0-3.3,1.5-3.3,3.3v21c0,1.8,1.5,3.3,3.3,3.3h21c1.8,0,3.3-1.5,3.3-3.3v-21
	C-34.7,1.5-36.2,0-38,0z M-43.1,3.9c0-0.4,0.3-0.8,0.8-0.8h3.7c0.4,0,0.8,0.3,0.8,0.8v3.7c0,0.4-0.3,0.8-0.8,0.8h-3.7
	c-0.4,0-0.8-0.3-0.8-0.8V3.9z M-48.5,8.5c2.9,0,5.3,2.4,5.3,5.3c0,2.9-2.4,5.3-5.3,5.3c-2.9,0-5.3-2.4-5.3-5.3
	C-53.8,10.9-51.4,8.5-48.5,8.5z M-37.8,23.6c0,0.4-0.3,0.8-0.8,0.8h-19.8c-0.4,0-0.8-0.3-0.8-0.8v-12h2.6c-0.2,0.7-0.3,1.4-0.3,2.2
	c0,4.6,3.8,8.4,8.4,8.4c4.6,0,8.4-3.8,8.4-8.4c0-0.8-0.1-1.5-0.3-2.2h2.6V23.6z"/>
<path d="M24.3,0h-21C1.5,0,0,1.5,0,3.3v21c0,1.8,1.5,3.3,3.3,3.3h21c1.8,0,3.3-1.5,3.3-3.3v-21
	C27.6,1.5,26.1,0,24.3,0z M19.2,3.9c0-0.4,0.3-0.8,0.8-0.8h3.7c0.4,0,0.8,0.3,0.8,0.8v3.7c0,0.4-0.3,0.8-0.8,0.8h-3.7
	c-0.4,0-0.8-0.3-0.8-0.8V3.9z M13.8,8.5c2.9,0,5.3,2.4,5.3,5.3c0,2.9-2.4,5.3-5.3,5.3c-2.9,0-5.3-2.4-5.3-5.3
	C8.5,10.9,10.9,8.5,13.8,8.5z M24.5,23.6c0,0.4-0.3,0.8-0.8,0.8H3.9c-0.4,0-0.8-0.3-0.8-0.8v-12h2.6c-0.2,0.7-0.3,1.4-0.3,2.2
	c0,4.6,3.8,8.4,8.4,8.4c4.6,0,8.4-3.8,8.4-8.4c0-0.8-0.1-1.5-0.3-2.2h2.6V23.6z"/>
</svg>
