<?xml version="1.0" encoding="UTF-8" standalone="no"?>
<!-- Created with Inkscape (http://www.inkscape.org/) -->

<svg
   xmlns:dc="http://purl.org/dc/elements/1.1/"
   xmlns:cc="http://creativecommons.org/ns#"
   xmlns:rdf="http://www.w3.org/1999/02/22-rdf-syntax-ns#"
   xmlns:svg="http://www.w3.org/2000/svg"
   xmlns="http://www.w3.org/2000/svg"
   version="1.1"
   height="1.5em"
   viewBox="0 0 52.290001 29.00625"
   id="svg3136">
  <defs
     id="defs3138" />
  <metadata
     id="metadata3141">
    <rdf:RDF>
      <cc:Work
         rdf:about="">
        <dc:format>image/svg+xml</dc:format>
        <dc:type
           rdf:resource="http://purl.org/dc/dcmitype/StillImage" />
        <dc:title></dc:title>
      </cc:Work>
    </rdf:RDF>
  </metadata>
  <g
     transform="translate(-345.28357,-497.85906)"
     id="layer1">
    <g
       transform="matrix(1.25,0,0,-1.25,367.74357,526.23281)"
       id="g68">
      <path
         d="M 0,0 0,21.179 C 0,21.854 0.201,22.256 0.603,22.386 1.472,22.594 2.335,22.699 3.19,22.699 5.178,22.699 7.026,22.231 8.739,21.297 10.453,20.362 11.839,19.086 12.896,17.472 13.952,15.856 14.567,14.074 14.735,12.129 15.526,12.465 16.371,12.634 17.265,12.634 19.082,12.634 20.637,11.99 21.928,10.706 23.22,9.423 23.864,7.878 23.864,6.074 23.864,4.257 23.22,2.707 21.928,1.422 20.637,0.137 19.089,-0.506 17.285,-0.506 L 0.35,-0.486 C 0.233,-0.448 0.146,-0.376 0.087,-0.272 0.028,-0.169 0,-0.078 0,0 M -4.556,0.566 C -4.556,-0.148 -4.075,-0.506 -3.115,-0.506 -2.154,-0.506 -1.674,-0.148 -1.674,0.566 L -1.674,20.03 C -1.674,21.122 -2.005,21.737 -2.667,21.88 -3.096,21.984 -3.518,21.861 -3.934,21.51 -4.348,21.159 -4.556,20.666 -4.556,20.03 L -4.556,0.566 z M -9.034,0.624 C -9.034,0.247 -8.897,-0.035 -8.624,-0.225 -8.351,-0.411 -8.001,-0.506 -7.573,-0.506 -7.158,-0.506 -6.817,-0.411 -6.552,-0.225 -6.284,-0.035 -6.153,0.247 -6.153,0.624 L -6.153,12.634 C -6.153,13.035 -6.292,13.38 -6.571,13.664 -6.85,13.952 -7.185,14.094 -7.573,14.094 -7.975,14.094 -8.319,13.952 -8.605,13.664 -8.89,13.38 -9.034,13.035 -9.034,12.634 L -9.034,0.624 z M -13.491,1.247 C -13.491,0.869 -13.358,0.589 -13.093,0.4 -12.826,0.21 -12.485,0.117 -12.071,0.117 -11.642,0.117 -11.295,0.21 -11.03,0.4 -10.763,0.589 -10.63,0.869 -10.63,1.247 L -10.63,14.405 C -10.63,14.794 -10.769,15.129 -11.048,15.408 -11.327,15.688 -11.668,15.826 -12.071,15.826 -12.46,15.826 -12.794,15.688 -13.073,15.408 -13.352,15.129 -13.491,14.794 -13.491,14.405 L -13.491,1.247 z M -17.968,3.66 C -17.968,3.14 -17.779,2.749 -17.403,2.482 -17.027,2.215 -16.626,2.122 -16.196,2.199 -15.795,2.277 -15.513,2.422 -15.35,2.628 -15.188,2.835 -15.106,3.181 -15.106,3.66 L -15.106,9.305 C -15.106,9.708 -15.247,10.049 -15.524,10.326 -15.805,10.606 -16.145,10.744 -16.548,10.744 -16.937,10.744 -17.271,10.606 -17.55,10.326 -17.829,10.049 -17.968,9.708 -17.968,9.305 L -17.968,3.66 z"
         id="path70"
         style="fill-opacity:1;fill-rule:nonzero;stroke:none" />
    </g>
  </g>
</svg>
