<?xml version="1.0" encoding="UTF-8" standalone="no"?>
<!-- Created with Inkscape (http://www.inkscape.org/) -->

<svg
   xmlns:dc="http://purl.org/dc/elements/1.1/"
   xmlns:cc="http://creativecommons.org/ns#"
   xmlns:rdf="http://www.w3.org/1999/02/22-rdf-syntax-ns#"
   xmlns:svg="http://www.w3.org/2000/svg"
   xmlns="http://www.w3.org/2000/svg"
   xmlns:sodipodi="http://sodipodi.sourceforge.net/DTD/sodipodi-0.dtd"
   xmlns:inkscape="http://www.inkscape.org/namespaces/inkscape"
   height="2em"
   viewBox="0 0 33.165001 37.54063"
   id="svg3136"
   version="1.1"
   inkscape:version="0.48.4 r9939"
   sodipodi:docname="facebook.svg">
  <defs
     id="defs3138" />
  <sodipodi:namedview
     id="base"
     pagecolor="#ffffff"
     bordercolor="#666666"
     borderopacity="1.0"
     inkscape:pageopacity="0.0"
     inkscape:pageshadow="2"
     inkscape:zoom="1.4"
     inkscape:cx="-26.948429"
     inkscape:cy="5.4997663"
     inkscape:document-units="px"
     inkscape:current-layer="layer1"
     showgrid="false"
     fit-margin-top="0"
     fit-margin-left="0"
     fit-margin-right="0"
     fit-margin-bottom="0"
     inkscape:window-width="459"
     inkscape:window-height="360"
     inkscape:window-x="627"
     inkscape:window-y="508"
     inkscape:window-maximized="0" />
  <metadata
     id="metadata3141">
    <rdf:RDF>
      <cc:Work
         rdf:about="">
        <dc:format>image/svg+xml</dc:format>
        <dc:type
           rdf:resource="http://purl.org/dc/dcmitype/StillImage" />
        <dc:title></dc:title>
      </cc:Work>
    </rdf:RDF>
  </metadata>
  <g
     inkscape:label="Layer 1"
     inkscape:groupmode="layer"
     id="layer1"
     transform="translate(-452.95688,-588.15419)">
    <g
       id="g44"
       transform="matrix(1.25,0,0,-1.25,480.61476,613.26282)">
      <path
         d="M 0,0 C -0.246,0 -0.422,-0.075 -0.529,-0.226 -0.637,-0.376 -0.688,-0.624 -0.688,-0.971 L -0.688,-1.813 0.676,-1.813 0.676,-0.971 C 0.676,-0.624 0.619,-0.376 0.514,-0.226 0.406,-0.075 0.235,0 0,0"
         style="fill-opacity:1;fill-rule:nonzero;stroke:none"
         id="path46"
         inkscape:connector-curvature="0" />
    </g>
    <g
       id="g48"
       transform="matrix(1.25,0,0,-1.25,473.52126,613.22494)">
      <path
         d="M 0,0 C -0.108,0 -0.218,-0.028 -0.323,-0.081 -0.433,-0.137 -0.538,-0.22 -0.646,-0.334 L -0.646,-5.507 C -0.517,-5.641 -0.396,-5.738 -0.278,-5.797 -0.162,-5.859 -0.034,-5.888 0.097,-5.888 0.283,-5.888 0.423,-5.829 0.511,-5.712 0.603,-5.594 0.645,-5.404 0.645,-5.14 L 0.645,-0.856 C 0.645,-0.575 0.591,-0.363 0.479,-0.218 0.371,-0.073 0.21,0 0,0"
         style="fill-opacity:1;fill-rule:nonzero;stroke:none"
         id="path50"
         inkscape:connector-curvature="0" />
    </g>
    <g
       id="g52"
       transform="matrix(1.25,0,0,-1.25,483.44313,617.13982)">
      <path
         d="M 0,0 -2.95,0 -2.95,-1.564 C -2.95,-2.002 -2.901,-2.302 -2.8,-2.471 -2.698,-2.643 -2.523,-2.725 -2.277,-2.725 -2.021,-2.725 -1.843,-2.656 -1.74,-2.512 -1.641,-2.368 -1.587,-2.052 -1.587,-1.564 L -1.587,-0.988 0,-0.988 0,-1.611 C 0,-2.462 -0.193,-3.103 -0.579,-3.532 -0.966,-3.964 -1.545,-4.177 -2.313,-4.177 -3.003,-4.177 -3.548,-3.95 -3.944,-3.494 -4.341,-3.037 -4.54,-2.409 -4.54,-1.611 L -4.54,2.114 C -4.54,2.835 -4.321,3.422 -3.886,3.874 -3.45,4.328 -2.885,4.556 -2.194,4.556 -1.491,4.556 -0.947,4.346 -0.57,3.923 -0.19,3.504 0,2.902 0,2.114 L 0,0 z M -5.706,-2.234 C -5.706,-2.825 -5.826,-3.275 -6.066,-3.59 -6.308,-3.902 -6.658,-4.058 -7.115,-4.058 -7.415,-4.058 -7.685,-3.999 -7.92,-3.877 -8.158,-3.756 -8.378,-3.569 -8.581,-3.316 L -8.581,-3.954 -10.138,-3.954 -10.138,7.296 -8.581,7.296 -8.581,3.676 C -8.372,3.928 -8.149,4.12 -7.919,4.254 -7.685,4.385 -7.449,4.449 -7.209,4.449 -6.72,4.449 -6.347,4.272 -6.09,3.918 -5.832,3.563 -5.706,3.05 -5.706,2.37 L -5.706,-2.234 z M -11.642,-3.954 -13.187,-3.954 -13.187,-3.037 C -13.472,-3.376 -13.768,-3.632 -14.073,-3.807 -14.382,-3.986 -14.683,-4.075 -14.969,-4.075 -15.328,-4.075 -15.596,-3.95 -15.775,-3.703 -15.957,-3.455 -16.048,-3.084 -16.048,-2.591 L -16.048,4.347 -14.505,4.347 -14.505,-2.018 C -14.505,-2.214 -14.472,-2.355 -14.408,-2.444 -14.344,-2.531 -14.239,-2.574 -14.096,-2.574 -13.979,-2.574 -13.838,-2.516 -13.662,-2.401 -13.488,-2.285 -13.332,-2.136 -13.187,-1.953 L -13.187,4.347 -11.642,4.347 -11.642,-3.954 z M -17.824,-3.954 -19.563,-3.954 -19.563,5.664 -21.359,5.664 -21.359,7.296 -16.026,7.296 -16.026,5.664 -17.824,5.664 -17.824,-3.954 z M -3.163,9.96 -19.082,9.96 C -22.013,9.96 -24.389,7.585 -24.389,4.656 L -24.389,-1.535 C -24.389,-4.466 -22.013,-6.844 -19.082,-6.844 L -3.163,-6.844 C -0.234,-6.844 2.143,-4.466 2.143,-1.535 L 2.143,4.656 C 2.143,7.585 -0.234,9.96 -3.163,9.96"
         style="fill-opacity:1;fill-rule:nonzero;stroke:none"
         id="path54"
         inkscape:connector-curvature="0" />
    </g>
    <g
       id="g56"
       transform="matrix(1.25,0,0,-1.25,459.57476,588.15419)">
      <path
         d="M 0,0 1.75,0 2.879,-4.496 2.988,-4.496 4.062,0 5.829,0 3.805,-6.58 3.805,-11.248 2.066,-11.248 2.066,-6.79 0,0 z"
         style="fill-opacity:1;fill-rule:nonzero;stroke:none"
         id="path58"
         inkscape:connector-curvature="0" />
    </g>
    <g
       id="g60"
       transform="matrix(1.25,0,0,-1.25,468.74713,599.78507)">
      <path
         d="M 0,0 C 0,-0.227 0.054,-0.403 0.164,-0.53 0.275,-0.653 0.431,-0.716 0.633,-0.716 0.845,-0.716 1.012,-0.653 1.135,-0.525 1.256,-0.397 1.318,-0.225 1.318,0 L 1.318,4.521 C 1.318,4.701 1.256,4.846 1.128,4.957 1.004,5.068 0.838,5.126 0.633,5.126 0.446,5.126 0.295,5.068 0.177,4.957 0.058,4.846 0,4.701 0,4.521 L 0,0 z M -1.589,4.457 C -1.589,5.101 -1.379,5.612 -0.965,5.992 -0.551,6.374 0.01,6.565 0.709,6.565 1.347,6.565 1.872,6.364 2.279,5.96 2.687,5.561 2.891,5.041 2.891,4.41 L 2.891,0.124 C 2.891,-0.586 2.691,-1.145 2.291,-1.55 1.892,-1.952 1.341,-2.153 0.639,-2.153 -0.035,-2.153 -0.577,-1.947 -0.981,-1.531 -1.387,-1.111 -1.589,-0.551 -1.589,0.153 L -1.589,4.457 z"
         style="fill-opacity:1;fill-rule:nonzero;stroke:none"
         id="path62"
         inkscape:connector-curvature="0" />
    </g>
    <g
       id="g64"
       transform="matrix(1.25,0,0,-1.25,479.50401,591.84194)">
      <path
         d="M 0,0 0,-8.298 -1.542,-8.298 -1.542,-7.383 C -1.83,-7.719 -2.124,-7.977 -2.43,-8.157 -2.738,-8.332 -3.037,-8.417 -3.328,-8.417 -3.682,-8.417 -3.955,-8.296 -4.134,-8.051 -4.314,-7.801 -4.404,-7.43 -4.404,-6.937 L -4.404,0 -2.863,0 -2.863,-6.362 C -2.863,-6.558 -2.828,-6.702 -2.764,-6.789 -2.699,-6.879 -2.597,-6.921 -2.452,-6.921 -2.337,-6.921 -2.194,-6.864 -2.022,-6.747 -1.848,-6.63 -1.689,-6.481 -1.542,-6.3 L -1.542,0 0,0 z"
         style="fill-opacity:1;fill-rule:nonzero;stroke:none"
         id="path66"
         inkscape:connector-curvature="0" />
    </g>
  </g>
</svg>
