<?xml version="1.0" encoding="UTF-8" standalone="no"?>
<!-- Created with Inkscape (http://www.inkscape.org/) -->

<svg
   xmlns:dc="http://purl.org/dc/elements/1.1/"
   xmlns:cc="http://creativecommons.org/ns#"
   xmlns:rdf="http://www.w3.org/1999/02/22-rdf-syntax-ns#"
   xmlns:svg="http://www.w3.org/2000/svg"
   xmlns="http://www.w3.org/2000/svg"
   xmlns:sodipodi="http://sodipodi.sourceforge.net/DTD/sodipodi-0.dtd"
   xmlns:inkscape="http://www.inkscape.org/namespaces/inkscape"
   width="21.334999"
   height="33.776249"
   id="svg3136"
   version="1.1"
   inkscape:version="0.48.4 r9939"
   sodipodi:docname="youtube.svg">
  <defs
     id="defs3138" />
  <sodipodi:namedview
     id="base"
     pagecolor="#ffffff"
     bordercolor="#666666"
     borderopacity="1.0"
     inkscape:pageopacity="0.0"
     inkscape:pageshadow="2"
     inkscape:zoom="1.4"
     inkscape:cx="-92.709499"
     inkscape:cy="65.245036"
     inkscape:document-units="px"
     inkscape:current-layer="layer1"
     showgrid="false"
     fit-margin-top="0"
     fit-margin-left="0"
     fit-margin-right="0"
     fit-margin-bottom="0"
     inkscape:window-width="459"
     inkscape:window-height="360"
     inkscape:window-x="627"
     inkscape:window-y="508"
     inkscape:window-maximized="0" />
  <metadata
     id="metadata3141">
    <rdf:RDF>
      <cc:Work
         rdf:about="">
        <dc:format>image/svg+xml</dc:format>
        <dc:type
           rdf:resource="http://purl.org/dc/dcmitype/StillImage" />
        <dc:title></dc:title>
      </cc:Work>
    </rdf:RDF>
  </metadata>
  <g
     inkscape:label="Layer 1"
     inkscape:groupmode="layer"
     id="layer1"
     transform="translate(-518.71795,-651.66384)">
    <g
       id="g36"
       transform="matrix(1.25,0,0,-1.25,538.9367,664.12259)">
      <path
         d="M 0,0 C -0.563,-0.893 -1.695,-2.039 -3.462,-3.507 -4.481,-4.361 -4.788,-4.805 -4.884,-4.994 -4.969,-5.18 -5.117,-5.686 -5.09,-7.01 L -5.079,-7.801 -10.386,-7.801 -10.396,-7.04 C -10.401,-6.493 -10.411,-6.16 -10.411,-6.042 -10.411,-4.709 -10.179,-3.578 -9.726,-2.689 -9.269,-1.798 -8.412,-0.85 -7.108,0.211 -5.542,1.482 -5.161,1.892 -5.07,2.01 -4.817,2.344 -4.691,2.709 -4.691,3.12 -4.691,3.703 -4.917,4.176 -5.392,4.606 -5.892,5.051 -6.572,5.268 -7.472,5.268 -8.335,5.268 -9.035,5.034 -9.603,4.556 -10.166,4.07 -10.574,3.295 -10.802,2.246 L -10.951,1.554 -16.175,2.204 -16.128,2.932 C -16.007,4.892 -15.167,6.572 -13.626,7.938 -12.099,9.285 -10.091,9.967 -7.651,9.967 -5.09,9.967 -3.011,9.277 -1.474,7.915 0.098,6.525 0.893,4.872 0.893,3.005 0.893,1.943 0.592,0.933 0,0 M -4.8,-17.054 -10.487,-17.054 -10.487,-11.369 -4.8,-11.369 -4.8,-17.054 z"
         style="fill:#e6e6e6;fill-opacity:1;fill-rule:nonzero;stroke:none"
         id="path38"
         inkscape:connector-curvature="0" />
    </g>
  </g>
</svg>
